<?xml version="1.0" standalone="no"?>
<!DOCTYPE svg PUBLIC "-//W3C//DTD SVG 20010904//EN"
 "http://www.w3.org/TR/2001/REC-SVG-20010904/DTD/svg10.dtd">
<svg version="1.0" 
    xmlns="http://www.w3.org/2000/svg" width="1054" height="1054" viewBox="0 0 100.000000 100.000000" preserveAspectRatio="xMidYMid meet">
    <g transform="translate(0.000000,100.000000) scale(0.100000,-0.100000)" fill="#fff" stroke="none">
        <path d="M529 829 c-64 -10 -99 -30 -151 -88 -37 -40 -47 -47 -62 -39 -10 6
-41 8 -68 6 -57 -6 -101 -41 -119 -95 -6 -20 -22 -39 -39 -48 -16 -8 -42 -31
-57 -52 -23 -30 -28 -48 -31 -107 -3 -64 -1 -75 25 -114 18 -28 45 -51 77 -67
l50 -25 340 0 c207 0 356 4 379 11 78 21 136 116 122 200 -10 58 -44 101 -102
129 -43 21 -52 30 -53 51 0 40 -26 105 -56 145 -54 70 -156 108 -255 93z m141
-70 c74 -37 120 -112 120 -193 0 -42 2 -46 28 -52 86 -18 125 -58 126 -130 1
-51 -24 -91 -75 -117 -31 -16 -66 -17 -381 -15 -335 3 -348 4 -375 24 -92 69
-83 204 16 251 32 15 40 24 45 55 12 74 96 102 155 52 l30 -25 14 33 c52 123
183 175 297 117z"/>
        <path d="M443 609 c-41 -20 -73 -60 -88 -106 -5 -20 -3 -23 18 -23 18 0 31 10
45 34 36 61 113 82 159 44 11 -9 10 -15 -8 -35 l-22 -23 66 0 67 0 0 67 0 66
-23 -21 -24 -22 -44 20 c-56 25 -94 25 -146 -1z"/>
        <path d="M621 428 c-22 -58 -87 -88 -146 -68 l-37 12 21 22 c12 12 21 25 21
29 0 4 -29 7 -65 7 l-65 0 0 -65 c0 -69 6 -77 35 -45 16 17 19 18 40 4 12 -8
44 -17 71 -20 83 -9 154 40 179 124 5 19 3 22 -20 22 -17 0 -28 -7 -34 -22z"/>
    </g>
</svg>
